<svg xmlns="http://www.w3.org/2000/svg" width="300" height="300"><path d="M217.978 279.502c-14.498-9.57-28.97-19.175-43.523-28.667-1.03-.672-2.698-.939-3.908-.672-11.905 2.63-23.89 3.341-35.942 1.438-23.953-3.776-44.235-14.525-60.194-32.839-20.235-23.214-28.22-50.377-23.814-80.75 3.797-26.152 16.49-47.632 37.408-63.852 22.602-17.536 48.376-24.125 76.6-19.85 24.159 3.662 44.428 14.985 60.288 33.639 19.624 23.086 27.211 49.906 22.98 79.805-2.895 20.505-11.857 38.316-26.027 53.495-.96 1.024-1.593 2.783-1.593 4.209-.018 17.48.117 34.957.21 52.437.004.895 0 1.79 0 3.096-1.095-.655-1.813-1.042-2.485-1.489m-26.293-65.678c-.06-1.934.595-3.287 1.891-4.674 4.657-4.99 9.736-9.707 13.667-15.23 29.732-41.755 6.706-100.336-43.4-110.84-39.577-8.303-78.118 18.112-84.971 58.238-6.488 37.988 19.617 74.844 57.657 81.667 11.757 2.104 23.232 1.023 34.45-2.468 5.088-1.588 8.375-.993 13.133 2.308.063.04 7.463 4.963 7.615 5.059 0-5.14.093-9.6-.042-14.06" fill="#2a9840"/><g fill="#f8e034"><path d="M107.12 125.235h90.848v11.06H107.12v-11.06zM107.12 147.643h90.848v11.06H107.12v-11.06zM107.126 170.042h45.047v11.061h-45.047v-11.06zM159.726 175.574a5.667 5.667 0 1 1 11.328 0 5.667 5.667 0 0 1-11.328 0"/></g></svg>